<?xml version="1.0" standalone="no"?>
<!DOCTYPE svg PUBLIC "-//W3C//DTD SVG 20010904//EN"
 "http://www.w3.org/TR/2001/REC-SVG-20010904/DTD/svg10.dtd">
<svg version="1.0" xmlns="http://www.w3.org/2000/svg"
 width="463.000000pt" height="463.000000pt" viewBox="0 0 463.000000 463.000000"
 preserveAspectRatio="xMidYMid meet">
<metadata>
Created by potrace 1.11, written by Peter Selinger 2001-2013
</metadata>
<g transform="translate(0.000000,463.000000) scale(0.100000,-0.100000)"
fill="#000000" stroke="none">
<path d="M2139 4326 c-2 -2 -34 -6 -71 -10 -36 -3 -72 -8 -80 -11 -7 -2 -26
-6 -43 -9 -72 -11 -137 -26 -155 -36 -11 -6 -20 -9 -20 -6 0 3 -43 -11 -96
-30 -755 -269 -1245 -977 -1228 -1774 2 -112 9 -196 20 -253 3 -16 7 -38 9
-50 16 -122 88 -335 162 -482 188 -372 531 -711 1070 -1055 150 -96 501 -279
566 -296 32 -7 281 113 524 255 138 80 405 269 518 366 17 14 50 42 74 63 56
47 267 255 307 302 230 274 382 627 421 985 14 127 8 392 -12 492 -2 11 -6 36
-9 56 -19 118 -82 309 -151 452 -178 372 -475 670 -850 855 -170 84 -325 132
-565 175 -38 7 -385 16 -391 11z"/>
</g>
</svg>
